PathFileType	4	(X/Y/Z)	pose_F01_0-83.trc
DataRate	CameraRate	NumFrames	NumMarkers	Units	OrigDataRate	OrigDataStartFrame	OrigNumFrames
30	30	5	21	m	30	41	83
Frame#	Time	CHip			RHip			RKnee			RAnkle			RBigToe			RSmallToe			RHeel			LHip			LKnee			LAnkle			LBigToe			LSmallToe			LHeel			Neck			Nose			RShoulder			RElbow			RWrist			LShoulder			LElbow			LWrist			
		X1	Y1	Z1	X2	Y2	Z2	X3	Y3	Z3	X4	Y4	Z4	X5	Y5	Z5	X6	Y6	Z6	X7	Y7	Z7	X8	Y8	Z8	X9	Y9	Z9	X10	Y10	Z10	X11	Y11	Z11	X12	Y12	Z12	X13	Y13	Z13	X14	Y14	Z14	X15	Y15	Z15	X16	Y16	Z16	X17	Y17	Z17	X18	Y18	Z18	X19	Y19	Z19	X20	Y20	Z20	X21	Y21	Z21	
41	1.3666666666666667	-0.2657763156722094	1.8825551958713134	-0.4286229865047551	-0.27114102884822067	1.880755381471327	-0.3636379069993974	-0.2721046410886281	1.722717886960477	-0.3583292809039788	-0.27353955666553914	1.5641008189581997	-0.3461896539226103	-0.23888263247583527	1.5217020819634777	-0.3748188914359554	-0.24791380010515396	1.5240701509672845	-0.3357216818195121	-0.284063980893217	1.5572512518399066	-0.34375936067045576	-0.2504028309747891	1.8846795755483094	-0.49896759520463957	-0.24428496349807136	1.7284704746941186	-0.5256545003165908	-0.25561819263982916	1.5860329787234981	-0.5566739624045692	-0.22740398288186925	1.5475693747873678	-0.600486814469611	-0.23233250644697492	1.5602224958738984	-0.6225712878107597	-0.26090321737098493	1.5783867360838424	-0.5379464346216318	-0.2598685833771329	2.046505259905819	-0.4374695596514139	-0.24822898222038942	2.111265094180166	-0.41276997076949457	-0.27284767631351947	2.043422909857713	-0.35119876384463183	-0.26575571192181463	2.0249681054999358	-0.26722765570549517	-0.2590870497546278	2.0793148836123523	-0.3356321653343812	-0.2436644520154688	2.0481565551301344	-0.5281639945395745	-0.24054908919280427	1.9630811812001123	-0.5668370255179878	-0.21808325311130097	1.8964738216295347	-0.6242894002554615
42	1.4	-0.26807840976800573	1.8802301450624783	-0.42610379960442213	-0.27619766102742327	1.878471202553624	-0.3621610202194254	-0.27226781280793605	1.7248957528213271	-0.35837754407245764	-0.27306913983467834	1.5683313498685494	-0.3424740520507595	-0.24455547786666254	1.5246819142562174	-0.3737249332147252	-0.2524103013883538	1.5269468871179455	-0.3313713589837191	-0.28372907767565536	1.5600742779968169	-0.339478277377437	-0.25270798701182035	1.8848261676480873	-0.496850043376588	-0.24453594706266904	1.7293076848240625	-0.5256601425779555	-0.2549005018114879	1.5878005136518294	-0.5532528549410631	-0.22894643155278344	1.550964478362229	-0.6032158246412352	-0.23066654754804675	1.5628859257777445	-0.6242016483248304	-0.25967374005748184	1.5777765063849023	-0.5343690240636992	-0.2620514114896258	2.043856736138897	-0.4354853379399992	-0.24974685509784667	2.103746056182425	-0.4294978603153834	-0.27921244781866145	2.0433803375436126	-0.3402999795551958	-0.26054703993441997	2.012430732118383	-0.2963590348898323	-0.25468126188584944	2.0723472376393586	-0.35048727806290725	-0.24574543914918687	2.047039650919187	-0.5262201561580622	-0.24175043988470923	1.9642626715290712	-0.561845464519175	-0.22028473966872453	1.8975106046844503	-0.6221107236854326
43	1.4333333333333333	-0.2692116181985816	1.8776263647550542	-0.428954685473117	-0.27454351968694857	1.8733177556519056	-0.3634527402417386	-0.26956005860279997	1.7225244635956258	-0.3656580406210982	-0.27379494290307893	1.5655199929702164	-0.3461683597542732	-0.23879429499192606	1.5229444324845818	-0.3795321889130672	-0.24932225877921477	1.5257432593262057	-0.33890805458470014	-0.2844658218701886	1.5572414485412835	-0.34305640386759195	-0.25385486671912544	1.8797188076272973	-0.49920615227117804	-0.24638736745411033	1.7279336164435544	-0.5235935837264101	-0.25638915816005614	1.590318487778034	-0.5472779943728548	-0.22475434926300916	1.5535555888626533	-0.5988057445075704	-0.22968530492159675	1.5633310499492112	-0.6206032743363445	-0.26169604258084217	1.5779254922469703	-0.5316105118515065	-0.263937022505859	2.042329676992082	-0.43269986819094197	-0.2493166583988716	2.097893452349658	-0.4500732223185889	-0.2817122961831692	2.040389593769572	-0.3316142865063074	-0.25533836794702525	1.9998933587368306	-0.32549041407416934	-0.25027547401707106	2.0653795916663653	-0.3653423907914332	-0.24694046185921514	2.04342977835078	-0.5288246400934192	-0.24405915063961017	1.9629647585391523	-0.5593753436690979	-0.2277866660697611	1.8954976547061182	-0.6097196285447118
44	1.4666666666666666	-0.27227997424767497	1.8776880868946728	-0.4301059912783431	-0.2831008626234504	1.8756355952655064	-0.3587501684499799	-0.26696688362910087	1.723397082704786	-0.37349816440008754	-0.2746456362171545	1.5637688109595744	-0.34956483994212845	-0.24099165459901173	1.5247892012055342	-0.3733220035291656	-0.24797467721886132	1.5267581710270144	-0.3363663154568406	-0.2855954648310427	1.557169126922985	-0.3462889699591042	-0.2649734674520016	1.8808570425144453	-0.4917983150322025	-0.2464058812876549	1.7277470100637646	-0.5235807122998664	-0.2596232549932837	1.5938341728245966	-0.5398418850235513	-0.22817694165583016	1.556709899361927	-0.5911641596163999	-0.23281328695589046	1.569686701246544	-0.6096161669254754	-0.2709565360698289	1.5805463707731093	-0.5173835861362436	-0.2671015232376613	2.038327679007307	-0.4331543168797773	-0.24403103029463777	2.0941255241111594	-0.4664010790940977	-0.2800511834204187	2.03468233288364	-0.3325886151767084	-2.082150624918329	1.9109095396755773	1.7869792222774854	-0.24586968614829263	2.058411945693372	-0.38019750351995923	-0.2500546096358376	2.0422285692391626	-0.5298826556059681	-0.25538123402112645	1.961601333500346	-0.5514551179515156	-0.23322760563576575	1.89529260265901	-0.5998693278721198
45	1.5	-0.2731789803619637	1.8789455266775479	-0.4336634789283649	-0.27849441916202056	1.8745231806299332	-0.3682736025499343	-0.2665205561753958	1.7209358444304383	-0.37843056402046676	-0.2730121800315404	1.5627068335465606	-0.3512516800766674	-0.23859196064127702	1.524177787583218	-0.3804759012279771	-0.24467651467366505	1.5266463573506412	-0.3402325985129505	-0.2844616430434169	1.5570854814938784	-0.34305341336598033	-0.26693968443445637	1.8821393825457393	-0.49847590033466926	-0.2477848401086844	1.7274576362796938	-0.5265018829719066	-0.26317617149833444	1.591927126713904	-0.5360543950805364	-0.23173896759274415	1.5613910678000356	-0.588230110336027	-0.23812556982939337	1.56955606530259	-0.6083635817759759	-0.2737599747247603	1.5778792453679031	-0.5102847332577855	-0.27209062071795953	2.0380884909907087	-0.4321345013705205	-0.24218762121205314	2.090270976603787	-0.4767178313353568	-0.2831684378777032	2.0349308849956635	-0.3344354451525818	-2.0614103075711396	1.9063577950614627	1.7463864182017805	-0.24146389827951426	2.0514442997203783	-0.39505261624848526	-0.25904804521652913	2.042477149830672	-0.5326429613512722	-0.2594877140531247	1.9602581716639889	-0.5550379144926912	-0.237126082464573	1.8925266774234524	-0.6033890751091113
